HIERARCHY
ROOT Hips
{
	OFFSET 0.000000 35.082581 0.000000
	CHANNELS 6 Xposition Yposition Zposition Xrotation Yrotation Zrotation 
	JOINT Spine
	{
		OFFSET 0.000000 6.876099 0.125700
		CHANNELS 3 Xrotation Yrotation Zrotation
		JOINT Spine1
		{
			OFFSET 0.000000 5.730043 0.104720
			CHANNELS 3 Xrotation Yrotation Zrotation
			JOINT Spine1_split
			{
				OFFSET 0.000000 5.730043 0.104720
				CHANNELS 3 Xrotation Yrotation Zrotation
				JOINT Spine2
				{
					OFFSET 0.000000 5.730043 0.104720
					CHANNELS 3 Xrotation Yrotation Zrotation
					JOINT Neck
					{
						OFFSET 0.000000 10.314075 0.188496
						CHANNELS 3 Xrotation Yrotation Zrotation
						JOINT Head
						{
							OFFSET 0.000000 7.643700 -2.377400
							CHANNELS 3 Xrotation Yrotation Zrotation
							JOINT HeadTop_End
							{
								OFFSET 0.000000 43.788605 -13.619600
								CHANNELS 3 Xrotation Yrotation Zrotation
								End Site
								{
									OFFSET 0.000000 0.000000 0.000000
								}
							}
						}
					}
					JOINT LeftShoulder
					{
						OFFSET 2.196100 4.412489 0.087492
						CHANNELS 3 Xrotation Yrotation Zrotation
						JOINT LeftShoulder_split
						{
							OFFSET 2.196100 4.412489 0.087492
							CHANNELS 3 Xrotation Yrotation Zrotation
							JOINT LeftArm
							{
								OFFSET 8.771219 -2.981674 -0.026999
								CHANNELS 3 Xrotation Yrotation Zrotation
								JOINT LeftForeArm
								{
									OFFSET 8.512804 0.000000 -0.000000
									CHANNELS 3 Xrotation Yrotation Zrotation
									JOINT LeftHand
									{
										OFFSET 18.484802 0.000000 -0.000000
										CHANNELS 3 Xrotation Yrotation Zrotation
										JOINT LeftHandThumb1
										{
											OFFSET 2.499420 -1.158070 2.653252
											CHANNELS 3 Xrotation Yrotation Zrotation
											JOINT LeftHandThumb2
											{
												OFFSET 2.370079 -1.368366 1.368366
												CHANNELS 3 Xrotation Yrotation Zrotation
												JOINT LeftHandThumb3
												{
													OFFSET 2.676727 -1.545410 1.545409
													CHANNELS 3 Xrotation Yrotation Zrotation
													JOINT LeftHandThumb4
													{
														OFFSET 1.692226 -0.977005 0.977007
														CHANNELS 3 Xrotation Yrotation Zrotation
														End Site
														{
															OFFSET 0.000000 0.000000 0.000000
														}
													}
												}
											}
										}
										JOINT LeftHandIndex1
										{
											OFFSET 7.924831 -0.457527 2.345128
											CHANNELS 3 Xrotation Yrotation Zrotation
											JOINT LeftHandIndex2
											{
												OFFSET 3.643303 0.000000 0.000000
												CHANNELS 3 Xrotation Yrotation Zrotation
												JOINT LeftHandIndex3
												{
													OFFSET 3.810799 0.000000 0.000000
													CHANNELS 3 Xrotation Yrotation Zrotation
													JOINT LeftHandIndex4
													{
														OFFSET 2.403702 0.000000 0.000000
														CHANNELS 3 Xrotation Yrotation Zrotation
														End Site
														{
															OFFSET 0.000000 0.000000 0.000000
														}
													}
												}
											}
										}
										JOINT LeftHandMiddle1
										{
											OFFSET 8.563995 0.000000 -0.000000
											CHANNELS 3 Xrotation Yrotation Zrotation
											JOINT LeftHandMiddle2
											{
												OFFSET 3.861618 0.000000 0.000000
												CHANNELS 3 Xrotation Yrotation Zrotation
												JOINT LeftHandMiddle3
												{
													OFFSET 3.701603 0.000000 0.000000
													CHANNELS 3 Xrotation Yrotation Zrotation
													JOINT LeftHandMiddle4
													{
														OFFSET 2.322544 0.000000 0.000000
														CHANNELS 3 Xrotation Yrotation Zrotation
														End Site
														{
															OFFSET 0.000000 0.000000 0.000000
														}
													}
												}
											}
										}
										JOINT LeftHandRing1
										{
											OFFSET 8.426460 -0.424637 -3.286992
											CHANNELS 3 Xrotation Yrotation Zrotation
											JOINT LeftHandRing2
											{
												OFFSET 3.126408 0.000000 0.000000
												CHANNELS 3 Xrotation Yrotation Zrotation
												JOINT LeftHandRing3
												{
													OFFSET 3.085026 0.000000 0.000000
													CHANNELS 3 Xrotation Yrotation Zrotation
													JOINT LeftHandRing4
													{
														OFFSET 1.644005 0.000000 0.000000
														CHANNELS 3 Xrotation Yrotation Zrotation
														End Site
														{
															OFFSET 0.000000 0.000000 0.000000
														}
													}
												}
											}
										}
									}
								}
							}
						}
					}
					JOINT RightShoulder
					{
						OFFSET -2.196100 4.412496 0.070690
						CHANNELS 3 Xrotation Yrotation Zrotation
						JOINT RightShoulder_split
						{
							OFFSET -2.196100 4.412496 0.070690
							CHANNELS 3 Xrotation Yrotation Zrotation
							JOINT RightArm
							{
								OFFSET -8.771282 -2.981682 -0.094208
								CHANNELS 3 Xrotation Yrotation Zrotation
								JOINT RightForeArm
								{
									OFFSET -8.494598 0.000000 0.000000
									CHANNELS 3 Xrotation Yrotation Zrotation
									JOINT RightHand
									{
										OFFSET -18.483803 0.000000 0.000001
										CHANNELS 3 Xrotation Yrotation Zrotation
										JOINT RightHandThumb1
										{
											OFFSET -2.527351 -1.008072 2.575253
											CHANNELS 3 Xrotation Yrotation Zrotation
											JOINT RightHandThumb2
											{
												OFFSET -2.321518 -1.340328 1.340329
												CHANNELS 3 Xrotation Yrotation Zrotation
												JOINT RightHandThumb3
												{
													OFFSET -2.657753 -1.534454 1.534455
													CHANNELS 3 Xrotation Yrotation Zrotation
													JOINT RightHandThumb4
													{
														OFFSET -1.807510 -1.043568 1.043567
														CHANNELS 3 Xrotation Yrotation Zrotation
														End Site
														{
															OFFSET 0.000000 0.000000 0.000000
														}
													}
												}
											}
										}
										JOINT RightHandIndex1
										{
											OFFSET -8.811420 0.015533 2.887987
											CHANNELS 3 Xrotation Yrotation Zrotation
											JOINT RightHandIndex2
											{
												OFFSET -3.537502 0.000000 0.000000
												CHANNELS 3 Xrotation Yrotation Zrotation
												JOINT RightHandIndex3
												{
													OFFSET -3.356201 0.000000 0.000000
													CHANNELS 3 Xrotation Yrotation Zrotation
													JOINT RightHandIndex4
													{
														OFFSET -1.933098 0.000000 0.000000
														CHANNELS 3 Xrotation Yrotation Zrotation
														End Site
														{
															OFFSET 0.000000 0.000000 0.000000
														}
													}
												}
											}
										}
										JOINT RightHandMiddle1
										{
											OFFSET -8.178135 0.000000 0.000000
											CHANNELS 3 Xrotation Yrotation Zrotation
											JOINT RightHandMiddle2
											{
												OFFSET -3.901302 0.000000 0.000000
												CHANNELS 3 Xrotation Yrotation Zrotation
												JOINT RightHandMiddle3
												{
													OFFSET -3.909599 0.000000 0.000000
													CHANNELS 3 Xrotation Yrotation Zrotation
													JOINT RightHandMiddle4
													{
														OFFSET -2.376003 0.000000 0.000000
														CHANNELS 3 Xrotation Yrotation Zrotation
														End Site
														{
															OFFSET 0.000000 0.000000 0.000000
														}
													}
												}
											}
										}
										JOINT RightHandRing1
										{
											OFFSET -7.559013 0.014137 -2.865403
											CHANNELS 3 Xrotation Yrotation Zrotation
											JOINT RightHandRing2
											{
												OFFSET -3.449306 0.000000 0.000000
												CHANNELS 3 Xrotation Yrotation Zrotation
												JOINT RightHandRing3
												{
													OFFSET -3.362106 0.000000 0.000000
													CHANNELS 3 Xrotation Yrotation Zrotation
													JOINT RightHandRing4
													{
														OFFSET -2.076401 0.000000 0.000000
														CHANNELS 3 Xrotation Yrotation Zrotation
														End Site
														{
															OFFSET 0.000000 0.000000 0.000000
														}
													}
												}
											}
										}
									}
								}
							}
						}
					}
				}
			}
		}
	}
	JOINT LeftUpLeg
	{
		OFFSET 10.205400 -3.823500 0.155100
		CHANNELS 3 Xrotation Yrotation Zrotation
		JOINT LeftLeg
		{
			OFFSET 0.708757 -12.982077 0.567790
			CHANNELS 3 Xrotation Yrotation Zrotation
			JOINT LeftFoot
			{
				OFFSET -0.708756 -10.717838 -2.184338
				CHANNELS 3 Xrotation Yrotation Zrotation
				JOINT LeftToeBase
				{
					OFFSET 0.108149 -7.191104 7.560241
					CHANNELS 3 Xrotation Yrotation Zrotation
					JOINT LeftToe_End
					{
						OFFSET 0.070230 0.081724 4.490308
						CHANNELS 3 Xrotation Yrotation Zrotation
						End Site
						{
							OFFSET 0.000000 0.000000 0.000000
						}
					}
				}
			}
		}
	}
	JOINT RightUpLeg
	{
		OFFSET -10.205400 -3.823500 0.005500
		CHANNELS 3 Xrotation Yrotation Zrotation
		JOINT RightLeg
		{
			OFFSET -0.708756 -12.982134 0.610632
			CHANNELS 3 Xrotation Yrotation Zrotation
			JOINT RightFoot
			{
				OFFSET 0.708754 -10.717769 -1.945823
				CHANNELS 3 Xrotation Yrotation Zrotation
				JOINT RightToeBase
				{
					OFFSET -0.108140 -7.191069 7.372968
					CHANNELS 3 Xrotation Yrotation Zrotation
					JOINT RightToe_End
					{
						OFFSET -0.070227 0.081735 4.479403
						CHANNELS 3 Xrotation Yrotation Zrotation
						End Site
						{
							OFFSET 0.000000 0.000000 0.000000
						}
					}
				}
			}
		}
	}
}
MOTION
Frames: 4
Frame Time: 0.016667
-0.589187 23.732834 -37.175556 35.936586 -69.196394 28.366696 0.773124 9.967872 -3.477559 -1.602555 6.808478 -2.710777 0.000000 0.000000 0.000000 -1.615871 2.233985 1.483571 13.856780 5.273891 -5.005346 3.706267 16.403031 6.692198 -0.000000 0.000000 0.000000 4.053406 5.979544 -12.991208 0.000000 0.000000 0.000000 -54.011609 -35.171670 -50.958556 -0.000043 -82.344774 -0.000032 -61.076856 33.044394 41.897750 -14.557454 10.837970 12.229964 0.749542 -4.257825 13.305499 -10.783736 -23.179364 -4.132435 -0.000005 -0.000002 -0.000004 -0.809529 2.578163 -31.496447 3.095878 5.163793 -61.866972 0.503787 2.378640 -23.913129 0.000000 0.000000 0.000001 -2.430851 1.729214 -41.460915 2.952339 5.084734 -60.259931 1.321761 3.707997 -39.227863 -0.000000 0.000000 0.000000 -6.054127 -0.166586 -49.857574 3.046241 5.137045 -61.313952 0.351714 2.001096 -19.935135 -0.000000 -0.000001 0.000001 -14.532547 3.553467 -4.417818 0.000000 0.000000 0.000000 79.542218 138.739078 -57.059732 -0.000007 34.452936 -0.000005 -53.561404 -12.490264 -34.496649 8.377142 -4.904147 11.021986 21.620230 -18.183912 -18.379201 -0.702855 -49.821230 -32.535138 -0.000002 0.000001 -0.000003 0.558936 -4.406590 25.436649 1.653046 -3.560354 49.799094 1.737723 -3.630059 51.149217 0.000001 0.000000 -0.000001 10.969834 -12.875563 52.800829 6.387596 -4.324409 111.833679 0.247371 -1.499128 18.739138 -0.000002 -0.000003 0.000003 3.705096 -7.151323 57.622433 5.328202 -4.608675 98.293471 1.627345 -3.538518 49.383992 0.000000 -0.000001 -0.000001 -67.465795 -31.949241 34.662950 43.589304 -11.344976 8.543929 25.982422 -0.435337 -23.838187 -2.955688 0.020801 -1.171155 0.000000 -0.000003 -0.000001 -3.728936 0.150687 -35.508244 43.745063 3.842401 -0.359113 -20.070217 -37.713948 44.493170 -1.798172 0.000040 0.000012 0.000000 0.000001 0.000000 
-0.441174 24.140068 -38.525902 34.749380 -68.292548 26.705881 0.712768 8.885147 -2.608661 -1.626986 6.164442 -2.467202 0.000000 0.000000 0.000000 -1.632765 1.585586 1.723311 13.643997 5.603240 -5.278001 3.496009 17.228925 6.531491 0.000002 0.000003 -0.000001 3.999909 6.042621 -12.807285 0.000000 0.000000 0.000000 -53.296058 -34.622980 -51.004451 0.000068 -82.387791 0.000061 -60.568219 31.239195 41.384178 -14.557459 10.837969 12.229968 0.749541 -4.257823 13.305495 -10.783743 -23.179360 -4.132430 -0.000002 0.000002 -0.000000 -0.809531 2.578165 -31.496447 3.095879 5.163793 -61.866972 0.503787 2.378641 -23.913129 0.000001 -0.000000 0.000002 -2.430852 1.729214 -41.460922 2.952344 5.084734 -60.259931 1.321762 3.707994 -39.227863 -0.000000 0.000000 -0.000000 -6.054127 -0.166586 -49.857574 3.046244 5.137045 -61.313952 0.351714 2.001096 -19.935138 -0.000001 0.000001 -0.000000 -14.624212 3.283253 -4.768776 0.000000 0.000000 0.000000 77.652660 137.993481 -55.679914 -0.000003 33.172214 0.000005 -53.616275 -11.197055 -33.722672 8.377144 -4.904151 11.021985 21.620228 -18.183910 -18.379202 -0.702860 -49.821234 -32.535135 -0.000003 -0.000004 0.000001 0.558936 -4.406590 25.436652 1.653045 -3.560354 49.799097 1.737726 -3.630060 51.149217 0.000000 -0.000000 0.000000 10.969835 -12.875567 52.800829 6.387597 -4.324408 111.833686 0.247374 -1.499129 18.739136 0.000001 -0.000001 -0.000001 3.705096 -7.151323 57.622440 5.328202 -4.608679 98.293471 1.627348 -3.538520 49.383992 -0.000001 0.000000 0.000000 -69.991503 -30.327693 32.023137 41.632629 -10.243995 8.697911 28.964083 -1.153746 -21.117727 -1.806249 0.066289 -2.100684 0.000001 -0.000001 -0.000002 -5.731270 -0.822411 -33.379288 46.612363 2.979563 2.268589 -23.964654 -35.777586 42.478818 -1.540954 0.000047 0.000001 0.000000 0.000001 0.000000 
-0.280694 24.552784 -39.841652 33.640878 -67.287971 24.994855 0.695157 7.905321 -1.614886 -1.619452 5.518456 -2.231736 0.000000 0.000000 0.000000 -1.616519 0.925559 1.956718 13.288393 5.956522 -5.383665 2.808266 18.062147 6.550447 0.000001 -0.000001 0.000002 3.900271 5.904395 -12.522566 0.000000 0.000000 0.000000 -52.948709 -33.982821 -50.979866 -0.000040 -82.394068 -0.000013 -59.827416 29.409176 40.747006 -14.557454 10.837967 12.229964 0.749545 -4.257824 13.305496 -10.783741 -23.179359 -4.132437 -0.000003 0.000003 -0.000002 -0.809532 2.578165 -31.496447 3.095879 5.163793 -61.866972 0.503786 2.378639 -23.913131 0.000000 -0.000001 0.000000 -2.430850 1.729215 -41.460922 2.952342 5.084735 -60.259931 1.321761 3.707994 -39.227863 0.000000 -0.000000 -0.000000 -6.054129 -0.166586 -49.857574 3.046244 5.137046 -61.313952 0.351715 2.001102 -19.935135 -0.000001 -0.000001 0.000000 -14.701919 3.010203 -5.023177 0.000000 0.000000 0.000000 75.541127 137.547716 -54.314624 -0.000014 31.733165 0.000004 -53.364978 -9.666807 -32.827614 8.377138 -4.904146 11.021985 21.620223 -18.183907 -18.379196 -0.702852 -49.821230 -32.535131 -0.000001 -0.000001 0.000003 0.558936 -4.406590 25.436654 1.653045 -3.560354 49.799094 1.737725 -3.630059 51.149210 -0.000001 0.000000 0.000000 10.969836 -12.875565 52.800835 6.387595 -4.324410 111.833679 0.247372 -1.499126 18.739141 -0.000002 -0.000001 0.000004 3.705097 -7.151322 57.622440 5.328201 -4.608675 98.293471 1.627348 -3.538519 49.383989 0.000000 -0.000000 0.000002 -73.041319 -28.297656 29.138277 40.829187 -9.445285 8.876241 30.550374 -2.027081 -19.894531 -1.593474 0.051916 -1.865437 0.000001 0.000001 -0.000000 -7.448897 -2.452956 -31.432261 48.436310 1.610938 5.250759 -27.019361 -32.669225 40.709471 -1.156786 0.000022 0.000010 0.000000 -0.000002 0.000000 
-0.172635 25.035789 -41.036484 32.918834 -66.417354 23.709868 0.716061 7.134472 -0.757744 -1.604753 4.974526 -2.071099 0.000000 0.000000 0.000000 -1.594773 0.362937 2.116384 12.920237 6.278295 -5.327308 1.884699 18.797657 6.755082 0.000002 -0.000002 0.000002 3.777939 5.614909 -12.196103 0.000000 0.000000 0.000000 -52.876487 -33.357141 -50.874497 0.000071 -82.402886 0.000111 -59.121182 27.942203 40.166693 -14.557455 10.837970 12.229967 0.749542 -4.257823 13.305493 -10.783738 -23.179359 -4.132435 -0.000001 -0.000000 -0.000004 -0.809534 2.578165 -31.496447 3.095881 5.163793 -61.866979 0.503787 2.378639 -23.913124 0.000000 -0.000001 -0.000000 -2.430854 1.729217 -41.460922 2.952344 5.084736 -60.259931 1.321760 3.707994 -39.227863 0.000000 -0.000000 -0.000000 -6.054128 -0.166586 -49.857567 3.046246 5.137045 -61.313952 0.351714 2.001097 -19.935135 0.000000 0.000000 -0.000000 -14.751595 2.757335 -5.115944 0.000000 0.000000 0.000000 73.753913 137.448131 -53.227589 -0.000003 30.448854 -0.000012 -52.877863 -8.315549 -32.047760 8.377143 -4.904147 11.021988 21.620228 -18.183910 -18.379197 -0.702855 -49.821230 -32.535135 0.000003 0.000004 -0.000000 0.558936 -4.406590 25.436647 1.653045 -3.560354 49.799097 1.737726 -3.630059 51.149221 0.000001 -0.000000 0.000000 10.969838 -12.875566 52.800832 6.387596 -4.324413 111.833686 0.247369 -1.499125 18.739141 -0.000002 0.000000 0.000001 3.705098 -7.151323 57.622440 5.328200 -4.608677 98.293471 1.627344 -3.538518 49.383989 0.000000 0.000000 0.000000 -76.559932 -26.020295 25.661683 42.743341 -8.847206 9.155833 30.071721 -2.645521 -19.735249 -1.613356 0.053614 -1.902417 0.000001 -0.000001 -0.000000 -9.816466 -4.480983 -28.496997 50.912910 1.402835 5.698488 -29.996415 -31.349936 37.044795 -1.155696 -0.000009 0.000006 -0.000000 -0.000004 -0.000000 
